<svg width="12" height="23" viewBox="0 0 12 23" fill="none" xmlns="http://www.w3.org/2000/svg">
<path d="M8.32812 0.5625C6.82422 0.5625 5.59375 1.79297 5.59375 3.29688C5.59375 4.80078 6.82422 6.03125 8.32812 6.03125C9.83203 6.03125 11.0625 4.80078 11.0625 3.29688C11.0625 1.79297 9.83203 0.5625 8.32812 0.5625ZM4.22656 7.39844C1.95703 7.39844 0.125 9.23047 0.125 11.5H2.85938C2.85938 10.7344 3.46094 10.1328 4.22656 10.1328C4.99219 10.1328 5.59375 10.7344 5.59375 11.5C5.59375 12.2656 2.85938 15.9844 2.85938 18.3359C2.85938 20.6875 4.69141 22.4375 6.96094 22.4375C9.23047 22.4375 11.0625 20.6055 11.0625 18.3359H8.32812C8.32812 19.1016 7.72656 19.7031 6.96094 19.7031C6.19531 19.7031 5.59375 19.1016 5.59375 18.3359C5.59375 17.3516 8.32812 13.3047 8.32812 11.5C8.32812 9.28516 6.49609 7.39844 4.22656 7.39844Z" fill="white"/>
</svg>
